<svg width="28" height="28" viewBox="0 0 28 28" fill="none" xmlns="http://www.w3.org/2000/svg">
<g clip-path="url(#clip0_4015_2587)">
<path opacity="0.42" d="M14.0155 26.5945C21.7558 26.5945 28.0305 25.0873 28.0305 23.2282C28.0305 21.369 21.7558 19.8618 14.0155 19.8618C6.27522 19.8618 0.000488281 21.369 0.000488281 23.2282C0.000488281 25.0873 6.27522 26.5945 14.0155 26.5945Z" fill="#EAECF0"/>
<path d="M7.95393 8.79553L2.9314 6.8302V22.4089C2.9314 22.7593 3.14613 23.0739 3.47246 23.2017L7.77799 24.8864C7.89436 24.932 8.01809 24.9554 8.14311 24.9554H24.3594C24.7061 24.9554 24.9872 24.6743 24.9872 24.3275V8.79571H7.95393V8.79553Z" fill="#98A2B3"/>
<path d="M25.0599 8.82476H8.00724L2.9314 6.8302H20.1151L25.0599 8.82476Z" fill="#F1404A"/>
<path d="M14.3834 7.83147C14.3435 7.79139 14.3039 7.75223 14.2644 7.71289C14.3039 7.71399 14.342 7.71601 14.3821 7.71693C14.3821 7.7184 14.3821 7.72061 14.3821 7.72061C14.3845 7.72061 14.3865 7.72043 14.3889 7.72043C14.3861 7.76345 14.3845 7.8004 14.3834 7.83147Z" fill="#EED92E"/>
<path d="M14.3848 7.93586C14.402 7.93623 14.4182 7.93734 14.4355 7.93752C14.4528 7.93715 14.469 7.93623 14.4862 7.93586L14.4355 7.88696L14.3848 7.93586Z" fill="#D6C429"/>
<path d="M14.383 7.93519C14.3843 7.93519 14.3854 7.93537 14.3867 7.93537C14.4035 7.9182 14.4199 7.9025 14.4367 7.88532L14.4133 7.86279H14.3835C14.3826 7.90084 14.3828 7.92817 14.383 7.93519Z" fill="#D6C429"/>
<path d="M14.3845 7.86368H14.4148L14.3851 7.83508C14.3845 7.84712 14.3847 7.85352 14.3845 7.86368Z" fill="#D6C429"/>
<path d="M14.3821 7.71669C14.342 7.71577 14.3039 7.71393 14.2644 7.71265C14.3039 7.75199 14.3435 7.79115 14.3834 7.83123C14.3845 7.80016 14.3861 7.76339 14.3891 7.72C14.3867 7.72 14.3846 7.72018 14.3823 7.72018C14.3823 7.72018 14.3821 7.71816 14.3821 7.71669Z" fill="#EED92E"/>
<path d="M14.4926 7.86279H14.4629L14.4395 7.88532C14.4563 7.90231 14.4727 7.9182 14.4895 7.93537C14.4908 7.93537 14.4919 7.93519 14.4932 7.93519C14.4934 7.92817 14.4936 7.90084 14.4926 7.86279Z" fill="#EED92E"/>
<path d="M14.4916 7.83459L14.4619 7.86318H14.4922C14.492 7.85322 14.4922 7.84682 14.4916 7.83459Z" fill="#EED92E"/>
<path d="M10.4265 16.3408L11.3625 17.5266C11.436 17.6198 11.5776 17.6196 11.6509 17.5262L12.5817 16.3411C12.6551 16.2477 12.7967 16.2476 12.8702 16.3408L13.8062 17.5266C13.8797 17.6198 14.0213 17.6196 14.0946 17.5262L15.0254 16.3411C15.0988 16.2477 15.2404 16.2476 15.3139 16.3408L16.2499 17.5266C16.3234 17.6198 16.465 17.6196 16.5383 17.5262L17.4692 16.3411C17.5425 16.2477 17.6841 16.2476 17.7576 16.3408L18.6936 17.5266C18.7671 17.6198 18.9087 17.6196 18.982 17.5262L19.9129 16.3411C19.9862 16.2477 20.1278 16.2476 20.2013 16.3408L21.1373 17.5266C21.2108 17.6198 21.3524 17.6196 21.4257 17.5262L22.3566 16.3411C22.4299 16.2477 22.5715 16.2476 22.645 16.3408L23.581 17.5266C23.6545 17.6198 23.7961 17.6196 23.8694 17.5262L24.99 16.1748V12.7096L23.8694 14.0324C23.7961 14.1258 23.6545 14.126 23.581 14.0327L22.645 12.8469C22.5715 12.7537 22.4299 12.7539 22.3566 12.8473L21.4257 14.0324C21.3524 14.1258 21.2108 14.126 21.1373 14.0327L20.2013 12.8469C20.1278 12.7537 19.9862 12.7539 19.9129 12.8473L18.982 14.0324C18.9087 14.1258 18.7671 14.126 18.6936 14.0327L17.7576 12.8469C17.6841 12.7537 17.5425 12.7539 17.4692 12.8473L16.5383 14.0324C16.465 14.1258 16.3236 14.126 16.2499 14.0327L15.3139 12.8469C15.2404 12.7537 15.0988 12.7539 15.0254 12.8473L14.0946 14.0324C14.0213 14.1258 13.8797 14.126 13.8062 14.0327L12.8702 12.8469C12.7967 12.7537 12.6551 12.7539 12.5817 12.8473L11.6509 14.0324C11.5776 14.1258 11.436 14.126 11.3625 14.0327L10.4265 12.8469C10.353 12.7537 10.2114 12.7539 10.138 12.8473L9.20722 14.0324C9.13387 14.1258 8.9923 14.126 8.91877 14.0327L7.87451 12.7096V16.2036L8.91877 17.5266C8.9923 17.6198 9.13387 17.6196 9.20722 17.5262L10.138 16.3411C10.2116 16.2477 10.353 16.2476 10.4265 16.3408Z" fill="#FFFDFF"/>
<path d="M10.4265 23.5469L11.3625 24.7328C11.436 24.826 11.5776 24.8258 11.6509 24.7324L12.5817 23.5473C12.6551 23.4539 12.7967 23.4537 12.8702 23.5469L13.8062 24.7328C13.8797 24.826 14.0213 24.8258 14.0946 24.7324L15.0254 23.5473C15.0988 23.4539 15.2404 23.4537 15.3139 23.5469L16.2499 24.7328C16.3234 24.826 16.465 24.8258 16.5383 24.7324L17.4692 23.5473C17.5425 23.4539 17.6841 23.4537 17.7576 23.5469L18.6936 24.7328C18.7671 24.826 18.9087 24.8258 18.982 24.7324L19.9129 23.5473C19.9862 23.4539 20.1278 23.4537 20.2013 23.5469L21.1373 24.7328C21.2108 24.826 21.3524 24.8258 21.4257 24.7324L22.3566 23.5473C22.4299 23.4539 22.5715 23.4537 22.645 23.5469L23.581 24.7328C23.6545 24.826 23.7961 24.8258 23.8694 24.7324L24.99 23.3809V19.9158L23.8694 21.2384C23.7961 21.3318 23.6545 21.332 23.581 21.2387L22.645 20.0529C22.5715 19.9597 22.4299 19.9599 22.3566 20.0533L21.4257 21.2384C21.3524 21.3318 21.2108 21.332 21.1373 21.2387L20.2013 20.0529C20.1278 19.9597 19.9862 19.9599 19.9129 20.0533L18.982 21.2384C18.9087 21.3318 18.7671 21.332 18.6936 21.2387L17.7576 20.0529C17.6841 19.9597 17.5425 19.9599 17.4692 20.0533L16.5383 21.2384C16.465 21.3318 16.3236 21.332 16.2499 21.2387L15.3139 20.0529C15.2404 19.9597 15.0988 19.9599 15.0254 20.0533L14.0946 21.2384C14.0213 21.3318 13.8797 21.332 13.8062 21.2387L12.8702 20.0529C12.7967 19.9597 12.6551 19.9599 12.5817 20.0533L11.6509 21.2384C11.5776 21.3318 11.436 21.332 11.3625 21.2387L10.4265 20.0529C10.353 19.9597 10.2114 19.9599 10.138 20.0533L9.20722 21.2384C9.13387 21.3318 8.9923 21.332 8.91877 21.2387L7.87451 19.9158V23.4098L8.91877 24.7328C8.9923 24.826 9.13387 24.8258 9.20722 24.7324L10.138 23.5473C10.2116 23.4537 10.353 23.4536 10.4265 23.5469Z" fill="#FFFDFF"/>
<path d="M17.8355 12.7546H14.9421V24.9546H17.8355V12.7546Z" fill="#667085"/>
<path d="M6.68942 13.778L5.24622 11.3527L4.02731 12.6861L2.9314 10.504V12.7769V14.524L4.02731 16.1801L5.24622 14.8467L6.68942 17.272L7.87212 16.2029V12.7089L6.68942 13.778Z" fill="#E0DFE0"/>
<path d="M6.6089 20.8498L5.3352 18.7092C5.29089 18.6348 5.18739 18.6243 5.12893 18.6881L4.15398 19.755C4.09294 19.8217 3.98392 19.8066 3.94329 19.7257L2.9314 17.7113V19.9842V21.7313L3.94403 23.2615C3.98778 23.3277 4.08026 23.3391 4.13872 23.2854L5.13407 22.3748C5.1929 22.3211 5.28575 22.3327 5.32932 22.3994L6.60669 24.353C6.65008 24.4194 6.74256 24.4313 6.80139 24.3782L7.87212 23.4104V19.9164L6.80635 20.8797C6.74587 20.9342 6.65063 20.9198 6.6089 20.8498Z" fill="#E0DFE0"/>
<path d="M25.423 8.72969V12.3559C25.423 12.5761 25.2445 12.7545 25.0244 12.7545H7.85671L7.80156 12.7328L2.85826 10.7904C2.70567 10.7305 2.60547 10.5832 2.60547 10.4194V6.79726C2.60547 6.57701 2.78398 6.39868 3.00405 6.39868H20.3043C20.3561 6.39868 20.4074 6.40879 20.4554 6.42847L25.1755 8.3607C25.3252 8.42192 25.423 8.56772 25.423 8.72969Z" fill="#EAECF0"/>
<path d="M22.6948 7.33191H22.6483H4.3998C4.27294 7.33191 4.17017 7.43468 4.17017 7.56135V11.3223L5.53579 11.859V8.10683C5.53579 7.97262 5.64444 7.86396 5.77865 7.86396H24.0138L22.6948 7.33191Z" fill="#667085"/>
<path d="M12.0848 6.39856H9.19141L14.9059 8.75549C15.006 8.79667 15.0712 8.89429 15.0712 9.00239V12.7544H17.9646V8.96893C17.9646 8.88106 17.9115 8.80163 17.8302 8.76817L12.0848 6.39856Z" fill="#667085"/>
<path d="M4.35156 11.3779V23.5448L5.71718 24.079V11.9144L4.35156 11.3779Z" fill="#667085"/>
<path opacity="0.15" d="M7.95393 12.7565H7.85502L7.79987 12.7348L2.9314 10.8219V11.4771L7.79987 13.3901L7.85502 13.4118H7.95393H24.9871V12.7565H7.95393Z" fill="black"/>
<path d="M21.2585 3.41277C21.2585 3.41277 21.2675 7.60744 14.3796 7.70746L15.4526 6.67478C15.4526 6.67478 19.5312 6.85569 19.2029 4.04227C19.2029 4.04227 19.6024 2.51192 21.2585 3.41277Z" fill="#475467"/>
<path d="M7.64893 3.41265C7.64893 3.41265 7.63992 7.60732 14.5278 7.70733L13.4548 6.67466C13.4548 6.67466 9.37617 6.85557 9.70453 4.04214C9.70453 4.04214 9.30503 2.5118 7.64893 3.41265Z" fill="#475467"/>
<path d="M21.2541 3.41255C21.2541 3.41255 18.638 3.47781 14.4161 7.77249C14.4161 7.77249 14.3437 5.53709 16.3454 3.68096C18.3471 1.82484 20.1259 1.1924 21.2541 3.41255Z" fill="#667085"/>
<path d="M7.64941 3.41924C7.64941 3.41924 10.3066 3.47771 14.5284 7.77239C14.5284 7.77239 14.6009 5.53018 12.5991 3.67405C10.5974 1.81793 8.77769 1.1991 7.64941 3.41924Z" fill="#667085"/>
</g>
<defs>
<clipPath id="clip0_4015_2587">
<rect width="28" height="28" fill="white"/>
</clipPath>
</defs>
</svg>
