<svg fill="none" height="28" viewBox="0 0 28 28" width="28" xmlns="http://www.w3.org/2000/svg" xmlns:xlink="http://www.w3.org/1999/xlink"><clipPath id="a"><path d="m0 0h28v28h-28z"/></clipPath><g clip-path="url(#a)"><path d="m14.0173 26.154c7.7416 0 14.0173-1.5074 14.0173-3.3669s-6.2757-3.3669-14.0173-3.3669c-7.74153 0-14.0173 1.5074-14.0173 3.3669s6.27577 3.3669 14.0173 3.3669z" fill="#155976" opacity=".42"/><path d="m7.9555 8.35079-5.02337-1.96566v15.58127c0 .3505.21477.6651.54115.7929l4.30624 1.6851c.1164.0456.24015.0689.36518.0689h16.219c.3468 0 .6279-.2811.6279-.6279v-15.53443h-17.0361z" fill="#2a4494"/><path d="m25.0643 8.38003h-17.05548l-5.07669-1.9949h17.18657z" fill="#f1404a"/><path d="m14.3873 7.38691c-.0399-.04009-.0795-.07925-.119-.1186.0395.0011.0776.00312.1177.00404v.00368c.0024 0 .0044-.00018.0068-.00018-.0028.04303-.0044.07998-.0055.11106z" fill="#eed92e"/><path d="m14.3909 7.49117c.0173.00037.0334.00147.0507.00166.0173-.00037.0335-.00129.0508-.00166l-.0508-.04891z" fill="#d6c429"/><path d="m14.3891 7.49062c.0013 0 .0024.00018.0037.00018.0168-.01718.0332-.03288.05-.05005l-.0234-.02254h-.0298c-.0009.03805-.0007.06539-.0005.07241z" fill="#d6c429"/><path d="m14.3909 7.41947h.0303l-.0298-.0286c-.0005.01204-.0003.01844-.0005.0286z" fill="#d6c429"/><g fill="#eed92e"><path d="m14.386 7.27236c-.0401-.00092-.0782-.00276-.1177-.00405.0395.03935.0791.07852.119.1186.0011-.03107.0027-.06785.0057-.11124-.0024 0-.0044.00018-.0068.00018 0 0-.0002-.00202-.0002-.00349z"/><path d="m14.4988 7.41821h-.0298l-.0234.02254c.0168.01699.0332.03287.05.05005.0013 0 .0024-.00018.0037-.00018.0002-.00702.0004-.03436-.0005-.07241z"/><path d="m14.497 7.38989-.0297.0286h.0303c-.0002-.00997 0-.01637-.0006-.0286z"/></g><path d="m10.4269 15.8974.9362 1.186c.0735.0932.2151.0931.2885-.0004l.9309-1.1852c.0734-.0934.215-.0936.2885-.0004l.9362 1.186c.0735.0932.2151.0931.2885-.0004l.9309-1.1852c.0734-.0934.215-.0936.2885-.0004l.9362 1.186c.0735.0932.2151.0931.2885-.0004l.9309-1.1852c.0734-.0934.215-.0936.2885-.0004l.9362 1.186c.0735.0932.2151.0931.2885-.0004l.931-1.1852c.0733-.0934.2149-.0936.2885-.0004l.9361 1.186c.0735.0932.2151.0931.2885-.0004l.931-1.1852c.0733-.0934.2149-.0936.2885-.0004l.9361 1.186c.0735.0932.2151.0931.2885-.0004l1.1207-1.3516v-3.4658l-1.1207 1.323c-.0734.0934-.215.0936-.2885.0004l-.9361-1.186c-.0736-.0932-.2152-.0931-.2885.0004l-.931 1.1852c-.0734.0934-.215.0936-.2885.0004l-.9361-1.186c-.0736-.0932-.2152-.0931-.2885.0004l-.931 1.1852c-.0734.0934-.215.0936-.2885.0004l-.9362-1.186c-.0735-.0932-.2151-.0931-.2885.0004l-.9309 1.1852c-.0734.0934-.2148.0936-.2885.0004l-.9362-1.186c-.0735-.0932-.2151-.0931-.2885.0004l-.9309 1.1852c-.0734.0934-.215.0936-.2885.0004l-.9362-1.186c-.0735-.0932-.2151-.0931-.2885.0004l-.9309 1.1852c-.0734.0934-.215.0936-.2885.0004l-.9362-1.186c-.0735-.0932-.2151-.0931-.2885.0004l-.93096 1.1852c-.07336.0934-.21495.0936-.2885.0004l-1.04443-1.3234v3.4946l1.04443 1.3232c.07355.0932.21514.0931.2885-.0004l.93096-1.1852c.0736-.0934.215-.0936.2885-.0004z" fill="#fffdff"/><path d="m10.4269 23.1044.9362 1.186c.0735.0933.2151.0931.2885-.0003l.9309-1.1853c.0734-.0934.215-.0936.2885-.0004l.9362 1.186c.0735.0933.2151.0931.2885-.0003l.9309-1.1853c.0734-.0934.215-.0936.2885-.0004l.9362 1.186c.0735.0933.2151.0931.2885-.0003l.9309-1.1853c.0734-.0934.215-.0936.2885-.0004l.9362 1.186c.0735.0933.2151.0931.2885-.0003l.931-1.1853c.0733-.0934.2149-.0936.2885-.0004l.9361 1.186c.0735.0933.2151.0931.2885-.0003l.931-1.1853c.0733-.0934.2149-.0936.2885-.0004l.9361 1.186c.0735.0933.2151.0931.2885-.0003l1.1207-1.3517v-3.4657l-1.1207 1.3228c-.0734.0934-.215.0936-.2885.0003l-.9361-1.186c-.0736-.0932-.2152-.093-.2885.0004l-.931 1.1853c-.0734.0934-.215.0936-.2885.0003l-.9361-1.186c-.0736-.0932-.2152-.093-.2885.0004l-.931 1.1853c-.0734.0934-.215.0936-.2885.0003l-.9362-1.186c-.0735-.0932-.2151-.093-.2885.0004l-.9309 1.1853c-.0734.0934-.2148.0936-.2885.0003l-.9362-1.186c-.0735-.0932-.2151-.093-.2885.0004l-.9309 1.1853c-.0734.0934-.215.0936-.2885.0003l-.9362-1.186c-.0735-.0932-.2151-.093-.2885.0004l-.9309 1.1853c-.0734.0934-.215.0936-.2885.0003l-.9362-1.186c-.0735-.0932-.2151-.093-.2885.0004l-.93096 1.1853c-.07336.0934-.21495.0936-.2885.0003l-1.04443-1.3231v3.4946l1.04443 1.3231c.07355.0933.21514.0931.2885-.0003l.93096-1.1853c.0736-.0936.215-.0938.2885-.0004z" fill="#fffdff"/><path d="m17.8402 12.3114h-2.8939v12.202h2.8939z" fill="#4ea5d9"/><path d="m6.69078 13.3347-1.44345-2.4257-1.2191 1.3336-1.0961-2.1824v2.2733 1.7474l1.0961 1.6563 1.2191-1.3336 1.44345 2.4257 1.18289-1.0693v-3.4946z" fill="#e0dfe0"/><path d="m6.61024 20.4069-1.27391-2.1409c-.04431-.0744-.14783-.0849-.20631-.0211l-.9751 1.067c-.06105.0668-.17009.0517-.21073-.0292l-1.01206-2.0148v2.2733 1.7474l1.0128 1.5304c.04376.0662.13625.0776.19472.0239l.99552-.9107c.05884-.0537.1517-.0421.19528.0246l1.27758 1.9539c.0434.0664.13589.0784.19473.0252l1.07091-.9679v-3.4946l-1.06594.9635c-.0605.0544-.15575.0401-.19749-.03z" fill="#e0dfe0"/><path d="m25.428 8.28684v3.62676c0 .2203-.1786.3987-.3987.3987h-17.1705l-.05516-.0217-4.94412-1.9427c-.15262-.0599-.25283-.2072-.25283-.37104v-3.62277c0-.22028.17854-.39865.39865-.39865h17.30316c.0518 0 .1031.01012.1511.02979l4.7209 1.93256c.1497.06123.2475.20705.2475.36905z" fill="#2a4494"/><path d="m22.6996 6.88696h-.0465-18.25156c-.12687 0-.22966.10279-.22966.22948v3.76156l1.36584.5368v-3.75279c0-.13423.10868-.2429.24291-.2429h18.23817z" fill="#4ea5d9"/><path d="m12.0877 5.95496h-2.89385l5.71545 2.35731c.1001.04119.1653.13883.1653.24695v3.75258h2.8939v-3.78604c0-.0879-.0531-.16733-.1344-.2008z" fill="#4ea5d9"/><path d="m4.35303 10.9342v12.1689l1.36584.5343v-12.1666z" fill="#428cb8"/><path d="m7.9555 12.3128h-.09893l-.05517-.0217-4.86927-1.9133v.6553l4.86927 1.9133.05517.0217h.09893 17.0359v-.6553z" fill="#000" opacity=".15"/><path d="m21.265 2.96726s.009 4.19537-6.88 4.2954l1.0731-1.03285s4.0794.18094 3.751-2.63295c0 0 .3995-1.5306 2.0559-.6296z" fill="#3b7ca3"/><path d="m7.65308 2.96739s-.00901 4.19536 6.88002 4.29539l-1.0732-1.03284s-4.07929.18093-3.75088-2.63296c0 0-.39957-1.5306-2.05594-.62959z" fill="#3b7ca3"/><path d="m21.2597 2.96698s-2.6166.06528-6.8392 4.36067c0 0-.0725-2.23577 1.9296-4.09221 2.0021-1.85643 3.7811-2.488972 4.9096-.26846z" fill="#4ea5d9"/><path d="m7.65112 2.97502s2.65758.05847 6.88018 4.35386c0 0 .0724-2.24257-1.9296-4.09901-2.0021-1.85643-3.82212-2.475362-4.95058-.25485z" fill="#4ea5d9"/></g></svg>