<svg fill="none" height="16" viewBox="0 0 17 16" width="17" xmlns="http://www.w3.org/2000/svg"><g stroke="#fff" stroke-linecap="round" stroke-linejoin="round"><path d="m1.8335 6.66663c0-1.88562 0-2.82843.58578-3.41422.58579-.58578 1.5286-.58578 3.41422-.58578h5.3333c1.8856 0 2.8285 0 3.4142.58578.5858.58579.5858 1.5286.5858 3.41422v2.66666c0 1.88561 0 2.82841-.5858 3.41421-.5857.5858-1.5286.5858-3.4142.5858h-5.3333c-1.88562 0-2.82843 0-3.41422-.5858-.58578-.5858-.58578-1.5286-.58578-3.41421z"/><path d="m4.5 6.60278c0-3.02961 4 .05724 4 2.06381h-2.33333c-1.15787 0-1.66667-1.02009-1.66667-2.06381z"/><path d="m12.5 6.60278c0-3.02961-4 .05724-4 2.06381h2.3333c1.1579 0 1.6667-1.02009 1.6667-2.06381z"/><path d="m8.5 2.66663v10.66667"/><path d="m1.8335 8.66663h13.3333"/><path d="m10.5 10.6666-2-1.99997-2 1.99997"/></g></svg>