<svg fill="none" height="14" viewBox="0 0 14 14" width="14" xmlns="http://www.w3.org/2000/svg"><circle cx="7" cy="7" fill="#17b26a" r="7"/><path d="m6.66262 10.3795c-.02321 0-.04617-.0048-.06743-.0141-.02127-.0093-.04038-.0229-.05613-.0399l-3.33151-3.60376c-.02221-.02402-.03693-.054-.04237-.08626-.00544-.03227-.00135-.06541.01176-.09539.01312-.02997.03468-.05548.06206-.07339s.05939-.02745.09211-.02745h1.6036c.02408.00001.04788.00517.06979.01516.02191.00998.04142.02455.05722.04271l1.11341 1.28093c.12033-.25721.35326-.68549.76202-1.20736.60429-.77152 1.7283-1.90617 3.65135-2.93046.0372-.01979.0804-.02493.1212-.0144.0407.01054.0761.03597.099.07129s.0318.07796.0248.11949c-.0069.04153-.0292.07893-.0624.10483-.0074.00574-.7488.58963-1.60216 1.65914-.78535.9842-1.82932 2.59353-2.34303 4.67112-.00903.0365-.03001.069-.05962.0921-.02961.0232-.06612.0358-.10372.0358z" fill="#fff"/></svg>